HIERARCHY
ROOT Hips
{
  OFFSET -176.663 94.5145 -179.177
  CHANNELS 6 Xposition Yposition Zposition Zrotation Xrotation Yrotation
  JOINT ToSpine
  {
    OFFSET -2.69724 7.43032 -0.144315
    CHANNELS 3 Zrotation Xrotation Yrotation
    JOINT Spine
    {
      OFFSET -0.0310711 10.7595 1.96963
      CHANNELS 3 Zrotation Xrotation Yrotation
      JOINT Spine1
      {
        OFFSET 13.1342 3.43533 0.764692
        CHANNELS 3 Zrotation Xrotation Yrotation
        JOINT Neck
        {
          OFFSET 29.8703 7.82586 -0.130764
          CHANNELS 3 Zrotation Xrotation Yrotation
          JOINT Head
          {
            OFFSET 9.52751 0.295786 -0.907742
            CHANNELS 3 Zrotation Xrotation Yrotation
            End Site
            {
              OFFSET 16.4037 0.713936 2.7358
            }
          }
        }
        JOINT LeftShoulder
        {
          OFFSET 27.5574 4.95586 2.47156
          CHANNELS 3 Zrotation Xrotation Yrotation
          JOINT LeftArm
          {
            OFFSET 1.20734 -0.998971 20.1238
            CHANNELS 3 Zrotation Xrotation Yrotation
            JOINT LeftForeArm
            {
              OFFSET 26.8049 -0.0536703 -0.155908
              CHANNELS 3 Zrotation Xrotation Yrotation
              JOINT LeftHand
              {
                OFFSET 26.6817 0 0.320147
                CHANNELS 3 Zrotation Xrotation Yrotation
                End Site
                {
                  OFFSET 18.6119 0 0.382219
                }
              }
            }
          }
        }
        JOINT RightShoulder
        {
          OFFSET 27.5927 4.71444 -2.65209
          CHANNELS 3 Zrotation Xrotation Yrotation
          JOINT RightArm
          {
            OFFSET 2.83739 -1.17114 -18.7564
            CHANNELS 3 Zrotation Xrotation Yrotation
            JOINT RightForeArm
            {
              OFFSET 28.839 -0.0548439 1.22491
              CHANNELS 3 Zrotation Xrotation Yrotation
              JOINT RightHand
              {
                OFFSET 26.5114 0 -0.101894
                CHANNELS 3 Zrotation Xrotation Yrotation
                End Site
                {
                  OFFSET 18.2168 0 0
                }
              }
            }
          }
        }
      }
    }
  }
  JOINT LeftUpLeg
  {
    OFFSET -4.76168 -1.9167 -10.2353
    CHANNELS 3 Zrotation Xrotation Yrotation
    JOINT LeftLeg
    {
      OFFSET 2.55951 -42.0585 -8.02213
      CHANNELS 3 Zrotation Xrotation Yrotation
      JOINT LeftFoot
      {
        OFFSET 3.16357 -42.5282 -3.95426
        CHANNELS 3 Zrotation Xrotation Yrotation
        JOINT LeftToeBase
        {
          OFFSET 0.346054 -6.02161 12.8035
          CHANNELS 3 Zrotation Xrotation Yrotation
          End Site
          {
            OFFSET 0.134235 -1.35082 5.13018
          }
        }
      }
    }
  }
  JOINT RightUpLeg
  {
    OFFSET -4.94151 -1.41743 10.6446
    CHANNELS 3 Zrotation Xrotation Yrotation
    JOINT RightLeg
    {
      OFFSET -2.56294 -42.0364 -7.94377
      CHANNELS 3 Zrotation Xrotation Yrotation
      JOINT RightFoot
      {
        OFFSET -3.0952 -42.555 -4.02241
        CHANNELS 3 Zrotation Xrotation Yrotation
        JOINT RightToeBase
        {
          OFFSET -0.0828122 -6.13587 12.8035
          CHANNELS 3 Zrotation Xrotation Yrotation
          End Site
          {
            OFFSET -0.131328 -1.35082 5.13018
          }
        }
      }
    }
  }
}
MOTION
Frames:	8
Frame Time:	0.00833333
-38.4833 90.0632 -32.9892 67.0287 -34.1022 -10.7117 -70.1915 0 88.8779 75.5191 65.2619 14.4107 9.33297 15.1664 1.57239 -152.693 20.1146 175.634 -156.092 59.0821 -176.95 0.267462 -13.7571 -32.4021 -83.1094 36.6709 -85.6638 13.5692 10.1988 -53.2842 0.420957 0.000575445 0.35866 -1.9507 5.65435 48.8416 -96.1234 -24.7731 56.291 2.14023 -45.9945 16.0859 0.58676 0.000331142 0.0646653 -69.4037 6.32347 90.5999 -5.45492 55.8202 -11.5329 -6.90849 9.28886 2.03639 8.38007 -17.7011 3.0576 -25.1907 3.85069 84.7661 1.49222 43.4143 -3.71988 -7.5954 -0.722159 1.16117 1.53525 -13.246 -4.77536 
-37.5864 90.092 -31.9253 67.3119 -34.62 -10.4245 -70.1915 0 88.8779 77.2824 65.5869 13.0881 8.99266 15.4235 1.32286 -152.581 20.1519 175.544 -156.234 59.1441 -176.764 0.240785 -13.8506 -32.5987 -83.0916 36.9027 -85.1466 13.7216 10.5019 -52.8079 0.420957 0.000575445 0.35866 -1.96443 5.72494 48.6584 -96.0659 -25.2108 56.8688 2.26896 -45.8774 16.3103 0.58676 0.000331142 0.0646653 -68.4813 6.67291 90.7289 -5.86045 58.3171 -9.8296 -7.49049 10.7443 2.37884 7.38522 -15.8328 4.05119 -25.8241 4.55302 84.7449 1.55817 44.5303 -3.921 -7.70701 -2.04414 1.18084 1.46139 -10.9893 -4.7862 
-36.7306 90.1654 -30.8675 67.6029 -35.1004 -10.1803 -70.1915 0 88.8779 78.9748 65.9175 11.7363 8.66614 15.6924 1.10521 -152.47 20.2039 175.445 -156.379 59.2226 -176.563 0.203774 -13.9835 -32.818 -83.0386 37.1409 -84.6933 13.8239 10.8181 -52.2131 0.420957 0.000575445 0.35866 -1.98048 5.80073 48.4888 -95.918 -25.7442 57.5409 2.44834 -45.6683 16.6086 0.58676 0.000331142 0.0646653 -67.4286 6.9454 90.7933 -6.46128 60.7765 -7.8995 -7.76317 11.8816 2.62682 6.46059 -14.1879 5.00403 -26.5808 5.2115 84.8093 1.5923 45.4415 -4.02193 -7.7083 -3.41561 1.18207 1.48044 -8.89878 -5.08863 
-35.8868 90.2842 -29.8168 67.8431 -35.486 -9.98635 -70.1915 0 88.8779 80.3517 66.2091 10.6405 8.40273 15.9452 0.908033 -152.353 20.2636 175.348 -156.484 59.303 -176.413 0.163031 -14.1275 -33.0447 -82.8888 37.3972 -84.3952 13.8315 11.1313 -51.4485 0.420957 0.000575445 0.35866 -1.99832 5.88397 48.3086 -95.6318 -26.4037 58.2888 2.67688 -45.2124 16.9921 0.58676 0.000331142 0.0646653 -66.2393 7.14567 90.8438 -7.19905 63.073 -6.04448 -7.61383 12.5424 2.70182 5.78884 -13.0557 5.67065 -27.4116 5.81903 84.9174 1.60551 46.0956 -4.21984 -7.76303 -4.64461 1.19144 1.46552 -7.18086 -5.22772 
-35.0261 90.4493 -28.7742 68.0218 -35.7483 -9.83122 -70.1915 0 88.8779 81.329 66.4579 9.88962 8.22109 16.1734 0.731324 -152.228 20.3309 175.248 -156.533 59.3842 -176.328 0.125763 -14.2545 -33.2633 -82.631 37.6726 -84.3026 13.6936 11.4184 -50.4583 0.420957 0.000575445 0.35866 -2.01732 5.97703 48.0937 -95.2944 -27.1682 59.0729 2.92751 -44.5887 17.4605 0.58676 0.000331142 0.0646653 -64.878 7.28805 90.8602 -7.9554 65.2545 -4.38096 -6.81028 12.589 2.51982 5.51666 -12.6105 5.90368 -28.3284 6.38027 85.0348 1.58654 46.4467 -4.59486 -7.87919 -5.72622 1.21311 1.3577 -5.87603 -5.10323 
-34.1406 90.6708 -27.735 68.1653 -35.9222 -9.71696 -70.1915 0 88.8779 82.029 66.6908 9.34083 8.09234 16.3924 0.580336 -152.1 20.409 175.142 -156.551 59.473 -176.274 0.0916369 -14.3675 -33.4812 -82.292 37.9648 -84.3653 13.446 11.6883 -49.2817 0.420957 0.000575445 0.35866 -2.04116 6.09537 47.8187 -94.8853 -28.0231 59.9326 3.19793 -43.8397 18.002 0.58676 0.000331142 0.0646653 -63.3584 7.36685 90.8198 -8.76734 67.365 -2.74673 -5.47648 12.1376 2.1425 5.55151 -12.6654 5.8685 -29.3488 6.88559 85.1632 1.52683 46.5325 -5.02644 -7.9816 -6.7474 1.23377 1.23152 -4.87874 -4.94702 
-33.2459 90.9449 -26.7004 68.2701 -36.0456 -9.67128 -70.1915 0 88.8779 82.502 66.9145 8.94572 7.99447 16.6097 0.451548 -151.968 20.4956 175.042 -156.55 59.5676 -176.244 0.0576039 -14.478 -33.7028 -81.8671 38.282 -84.5257 13.1729 11.9737 -48.0103 0.420957 0.000575445 0.35866 -2.06824 6.23332 47.5029 -94.1866 -28.9997 60.9787 3.50985 -42.7577 18.605 0.58676 0.000331142 0.0646653 -61.7492 7.35469 90.7812 -9.67717 69.2859 -1.14221 -4.03427 11.4108 1.70958 5.72982 -12.9673 5.79012 -30.4314 7.31116 85.3118 1.45124 46.4264 -5.41795 -8.10759 -7.65398 1.25351 1.11682 -4.17327 -4.80819 
-32.3478 91.2518 -25.6797 68.333 -36.1562 -9.72182 -70.1915 0 88.8779 82.8012 67.1344 8.65329 7.90562 16.8326 0.3414 -151.835 20.5882 174.961 -156.541 59.6659 -176.232 0.0275756 -14.5712 -33.9076 -81.3529 38.6319 -84.7241 12.9555 12.3144 -46.7368 0.420957 0.000575445 0.35866 -2.09049 6.36095 47.1888 -92.9671 -30.1138 62.3342 3.87271 -41.1381 19.2562 0.58676 0.000331142 0.0646653 -60.1195 7.225 90.8034 -10.686 70.8988 0.392567 -2.89597 10.6323 1.35848 5.8887 -13.2631 5.89384 -31.5348 7.63165 85.4892 1.38852 46.2027 -5.67577 -8.29455 -8.39182 1.27235 1.04573 -3.7441 -4.73623 
